<?xml version="1.0" encoding="utf-8"?>
<!-- Generator: Adobe Illustrator 27.5.0, SVG Export Plug-In . SVG Version: 6.00 Build 0)  -->
<svg version="1.1" xmlns="http://www.w3.org/2000/svg" xmlns:xlink="http://www.w3.org/1999/xlink" x="0px" y="0px"
	 viewBox="0 0 500 500" style="enable-background:new 0 0 500 500;" xml:space="preserve">
<g id="Background_Simple">
	<g>
		<path style="fill:#92E3A9;" d="M29.488,245.12c6.288-103.94,86.031-102.441,178.588-125.704
			c42.893-10.781,87.187-31.811,124.97-31.811c119.314,0,148.222,90.446,135.475,192.491
			c-13.137,105.166-85.661,168.262-210.976,157.531C138.817,427.46,22.616,358.697,29.488,245.12z"/>
		<path style="opacity:0.75;fill:#FFFFFF;" d="M29.488,245.12c6.288-103.94,86.031-102.441,178.588-125.704
			c42.893-10.781,87.187-31.811,124.97-31.811c119.314,0,148.222,90.446,135.475,192.491
			c-13.137,105.166-85.661,168.262-210.976,157.531C138.817,427.46,22.616,358.697,29.488,245.12z"/>
	</g>
</g>
<g id="Room">
	<g>
		<polyline style="fill:none;stroke:#263238;stroke-width:0.75;stroke-linecap:round;stroke-linejoin:round;" points="
			136.555,132.621 136.555,171.143 80.829,171.143 		"/>
		
			<line style="fill:none;stroke:#263238;stroke-width:0.75;stroke-linecap:round;stroke-linejoin:round;" x1="136.555" y1="125.232" x2="136.555" y2="130.12"/>
		
			<line style="fill:none;stroke:#263238;stroke-width:0.75;stroke-linecap:round;stroke-linejoin:round;" x1="136.555" y1="115.418" x2="136.555" y2="122.788"/>
		<polyline style="fill:none;stroke:#263238;stroke-width:0.75;stroke-linecap:round;stroke-linejoin:round;" points="
			198.86,171.143 143.134,171.143 143.134,115.418 		"/>
		<polyline style="fill:none;stroke:#263238;stroke-width:0.75;stroke-linecap:round;stroke-linejoin:round;" points="
			143.134,198.341 143.134,177.723 198.86,177.723 		"/>
		
			<line style="fill:none;stroke:#263238;stroke-width:0.75;stroke-linecap:round;stroke-linejoin:round;" x1="198.86" y1="237.835" x2="191.998" y2="237.835"/>
		
			<line style="fill:none;stroke:#263238;stroke-width:0.75;stroke-linecap:round;stroke-linejoin:round;" x1="193.5" y1="244.414" x2="198.86" y2="244.414"/>
		
			<line style="fill:none;stroke:#263238;stroke-width:0.75;stroke-linecap:round;stroke-linejoin:round;" x1="80.829" y1="311.106" x2="94.25" y2="311.106"/>
		
			<line style="fill:none;stroke:#263238;stroke-width:0.75;stroke-linecap:round;stroke-linejoin:round;" x1="100.25" y1="304.527" x2="80.829" y2="304.527"/>
		
			<line style="fill:none;stroke:#263238;stroke-width:0.75;stroke-linecap:round;stroke-linejoin:round;" x1="80.829" y1="244.414" x2="123.25" y2="244.414"/>
		
			<line style="fill:none;stroke:#263238;stroke-width:0.75;stroke-linecap:round;stroke-linejoin:round;" x1="125.866" y1="237.835" x2="80.829" y2="237.835"/>
		<polyline style="fill:none;stroke:#263238;stroke-width:0.75;stroke-linecap:round;stroke-linejoin:round;" points="
			80.829,177.723 136.555,177.723 136.555,202.121 		"/>
		<g>
			<path style="fill:none;stroke:#263238;stroke-width:0.75;stroke-linecap:round;stroke-linejoin:round;" d="M210.358,258.395
				v11.813 M210.358,246.548v8.458 M69.332,330.893V133.315l1.285-1.285c38.173-38.171,100.284-38.171,138.457,0l1.285,1.285v109.52
				 M69.332,342.788v-6.961 M69.332,351.94v-6.652 M78.105,286.788v63.083 M78.105,279.288v4.666 M78.105,136.974V272.16
				 M201.585,194.745v-57.772c-33.257-31.961-85.404-33.038-119.934-3.23 M201.585,200.371v-2.75 M201.585,262.395v-56.149"/>
		</g>
		<g>
			
				<rect x="293.853" y="344.591" style="fill:none;stroke:#263238;stroke-width:0.75;stroke-linecap:round;stroke-linejoin:round;" width="4.345" height="77.446"/>
			
				<rect x="265.516" y="344.591" style="fill:none;stroke:#263238;stroke-width:0.75;stroke-linecap:round;stroke-linejoin:round;" width="4.345" height="77.446"/>
			
				<rect x="279.685" y="344.591" style="fill:none;stroke:#263238;stroke-width:0.75;stroke-linecap:round;stroke-linejoin:round;" width="4.345" height="77.446"/>
			
				<rect x="308.022" y="344.591" style="fill:none;stroke:#263238;stroke-width:0.75;stroke-linecap:round;stroke-linejoin:round;" width="4.345" height="77.446"/>
			
				<rect x="350.529" y="344.591" style="fill:none;stroke:#263238;stroke-width:0.75;stroke-linecap:round;stroke-linejoin:round;" width="4.345" height="77.446"/>
			
				<rect x="251.347" y="344.591" style="fill:none;stroke:#263238;stroke-width:0.75;stroke-linecap:round;stroke-linejoin:round;" width="4.345" height="77.446"/>
			
				<rect x="336.36" y="344.591" style="fill:none;stroke:#263238;stroke-width:0.75;stroke-linecap:round;stroke-linejoin:round;" width="4.345" height="77.446"/>
			
				<rect x="322.191" y="344.591" style="fill:none;stroke:#263238;stroke-width:0.75;stroke-linecap:round;stroke-linejoin:round;" width="4.345" height="77.446"/>
			<path style="fill:none;stroke:#263238;stroke-width:0.75;stroke-linecap:round;stroke-linejoin:round;" d="M379.821,421.595
				c-1.103,0-2.037,0.084-2.792,0.208l2.787,0.604l2.651-0.627C381.737,421.668,380.854,421.595,379.821,421.595z"/>
			<path style="fill:none;stroke:#263238;stroke-width:0.75;stroke-linecap:round;stroke-linejoin:round;" d="M380.156,423.849
				c3.074-0.049,4.748-0.756,4.748-1.125c0-0.174-0.364-0.419-1.063-0.637l-3.684,0.872V423.849z"/>
			<path style="fill:none;stroke:#263238;stroke-width:0.75;stroke-linecap:round;stroke-linejoin:round;" d="M374.735,422.724
				c0,0.37,1.68,1.078,4.763,1.125v-0.88l-3.844-0.833C375.049,422.34,374.735,422.563,374.735,422.724z"/>
			
				<rect x="251.347" y="333.455" style="fill:none;stroke:#263238;stroke-width:0.75;stroke-linecap:round;stroke-linejoin:round;" width="4.345" height="11.136"/>
			
				<rect x="293.853" y="333.455" style="fill:none;stroke:#263238;stroke-width:0.75;stroke-linecap:round;stroke-linejoin:round;" width="4.345" height="11.136"/>
			
				<rect x="265.516" y="333.455" style="fill:none;stroke:#263238;stroke-width:0.75;stroke-linecap:round;stroke-linejoin:round;" width="4.345" height="11.136"/>
			
				<rect x="308.022" y="333.455" style="fill:none;stroke:#263238;stroke-width:0.75;stroke-linecap:round;stroke-linejoin:round;" width="4.345" height="11.136"/>
			
				<rect x="350.529" y="333.455" style="fill:none;stroke:#263238;stroke-width:0.75;stroke-linecap:round;stroke-linejoin:round;" width="4.345" height="11.136"/>
			
				<rect x="322.191" y="333.455" style="fill:none;stroke:#263238;stroke-width:0.75;stroke-linecap:round;stroke-linejoin:round;" width="4.345" height="11.136"/>
			
				<rect x="279.685" y="333.455" style="fill:none;stroke:#263238;stroke-width:0.75;stroke-linecap:round;stroke-linejoin:round;" width="4.345" height="11.136"/>
			
				<rect x="336.36" y="333.455" style="fill:none;stroke:#263238;stroke-width:0.75;stroke-linecap:round;stroke-linejoin:round;" width="4.345" height="11.136"/>
			
				<rect x="364.698" y="337.167" style="fill:none;stroke:#263238;stroke-width:0.75;stroke-linecap:round;stroke-linejoin:round;" width="2.961" height="5.044"/>
			
				<rect x="238.815" y="337.167" style="fill:none;stroke:#263238;stroke-width:0.75;stroke-linecap:round;stroke-linejoin:round;" width="2.709" height="5.044"/>
			
				<rect x="238.815" y="426.233" style="fill:none;stroke:#263238;stroke-width:0.75;stroke-linecap:round;stroke-linejoin:round;" width="2.709" height="5.044"/>
			<path style="fill:none;stroke:#263238;stroke-width:0.75;stroke-linecap:round;stroke-linejoin:round;" d="M380.156,424.46
				c-0.112,0.004-0.224,0.004-0.336,0.004c-0.107,0-0.215,0-0.322-0.002v1.865h0.658V424.46z"/>
			<path style="fill:none;stroke:#263238;stroke-width:0.75;stroke-linecap:round;stroke-linejoin:round;" d="M380.156,424.46
				c2.739-0.043,5.405-0.639,5.405-1.736c0-1.144-2.888-1.742-5.741-1.742s-5.743,0.598-5.743,1.742
				c0,1.099,2.678,1.695,5.421,1.738c0.108,0.002,0.215,0.002,0.322,0.002C379.932,424.464,380.044,424.464,380.156,424.46z
				 M384.904,422.724c0,0.37-1.673,1.076-4.748,1.125v-0.89l3.684-0.872C384.54,422.306,384.904,422.551,384.904,422.724z
				 M379.498,423.849c-3.083-0.047-4.763-0.756-4.763-1.125c0-0.161,0.314-0.384,0.919-0.588l3.844,0.833V423.849z M377.029,421.803
				c0.754-0.125,1.689-0.208,2.792-0.208c1.033,0,1.917,0.073,2.647,0.186l-2.651,0.627L377.029,421.803z"/>
			<path style="fill:none;stroke:#263238;stroke-width:0.75;stroke-linecap:round;stroke-linejoin:round;" d="M383.584,427.392
				h-1.673v0.466h-4.169v-0.466h-13.044v5.044h17.827v18.349h5.419v-18.349h0.024v-0.962
				C387.967,429.22,386.005,427.392,383.584,427.392z"/>
			<polygon style="fill:none;stroke:#263238;stroke-width:0.75;stroke-linecap:round;stroke-linejoin:round;" points="
				381.911,427.858 381.911,427.392 381.911,426.327 380.156,426.327 379.498,426.327 377.742,426.327 377.742,427.392 
				377.742,427.858 			"/>
			
				<rect x="336.36" y="422.037" style="fill:none;stroke:#263238;stroke-width:0.75;stroke-linecap:round;stroke-linejoin:round;" width="4.345" height="11.136"/>
			
				<rect x="322.191" y="422.037" style="fill:none;stroke:#263238;stroke-width:0.75;stroke-linecap:round;stroke-linejoin:round;" width="4.345" height="11.136"/>
			
				<rect x="293.853" y="422.037" style="fill:none;stroke:#263238;stroke-width:0.75;stroke-linecap:round;stroke-linejoin:round;" width="4.345" height="11.136"/>
			
				<rect x="350.529" y="422.037" style="fill:none;stroke:#263238;stroke-width:0.75;stroke-linecap:round;stroke-linejoin:round;" width="4.345" height="11.136"/>
			
				<rect x="308.022" y="422.037" style="fill:none;stroke:#263238;stroke-width:0.75;stroke-linecap:round;stroke-linejoin:round;" width="4.345" height="11.136"/>
			
				<rect x="251.347" y="422.037" style="fill:none;stroke:#263238;stroke-width:0.75;stroke-linecap:round;stroke-linejoin:round;" width="4.345" height="11.136"/>
			
				<rect x="265.516" y="422.037" style="fill:none;stroke:#263238;stroke-width:0.75;stroke-linecap:round;stroke-linejoin:round;" width="4.345" height="11.136"/>
			
				<rect x="279.685" y="422.037" style="fill:none;stroke:#263238;stroke-width:0.75;stroke-linecap:round;stroke-linejoin:round;" width="4.345" height="11.136"/>
			<polygon style="fill:none;stroke:#263238;stroke-width:0.75;stroke-linecap:round;stroke-linejoin:round;" points="
				364.698,342.211 364.698,337.167 364.698,329.552 359.786,328.215 359.786,435.887 363.56,435.669 363.56,435.669 
				364.698,435.36 364.698,432.436 364.698,427.392 			"/>
			<polygon style="fill:none;stroke:#263238;stroke-width:0.75;stroke-linecap:round;stroke-linejoin:round;" points="
				359.786,435.887 359.786,328.215 354.874,329.552 354.874,333.455 354.874,344.591 354.874,422.037 354.874,433.173 
				354.874,435.36 357.33,436.029 357.33,436.029 			"/>
			<polygon style="fill:none;stroke:#263238;stroke-width:0.75;stroke-linecap:round;stroke-linejoin:round;" points="
				350.529,344.591 350.529,333.455 350.529,329.552 345.617,328.215 345.617,436.697 350.529,435.36 350.529,433.173 
				350.529,422.037 			"/>
			<polygon style="fill:none;stroke:#263238;stroke-width:0.75;stroke-linecap:round;stroke-linejoin:round;" points="
				345.617,328.215 340.705,329.552 340.705,333.455 340.705,344.591 340.705,422.037 340.705,433.173 340.705,435.36 
				345.617,436.697 			"/>
			<polygon style="fill:none;stroke:#263238;stroke-width:0.75;stroke-linecap:round;stroke-linejoin:round;" points="
				336.36,344.591 336.36,333.455 336.36,329.552 331.448,328.215 331.448,436.697 336.36,435.36 336.36,433.173 336.36,422.037 			
				"/>
			<polygon style="fill:none;stroke:#263238;stroke-width:0.75;stroke-linecap:round;stroke-linejoin:round;" points="
				331.448,328.215 326.536,329.552 326.536,333.455 326.536,344.591 326.536,422.037 326.536,433.173 326.536,435.36 
				331.448,436.697 			"/>
			<polygon style="fill:none;stroke:#263238;stroke-width:0.75;stroke-linecap:round;stroke-linejoin:round;" points="
				322.191,344.591 322.191,333.455 322.191,329.552 317.279,328.215 317.279,436.697 322.191,435.36 322.191,433.173 
				322.191,422.037 			"/>
			<polygon style="fill:none;stroke:#263238;stroke-width:0.75;stroke-linecap:round;stroke-linejoin:round;" points="
				317.279,328.215 312.367,329.552 312.367,333.455 312.367,344.591 312.367,422.037 312.367,433.173 312.367,435.36 
				317.279,436.697 			"/>
			<polygon style="fill:none;stroke:#263238;stroke-width:0.75;stroke-linecap:round;stroke-linejoin:round;" points="
				308.022,344.591 308.022,333.455 308.022,329.552 303.111,328.215 303.111,436.697 308.022,435.36 308.022,433.173 
				308.022,422.037 			"/>
			<polygon style="fill:none;stroke:#263238;stroke-width:0.75;stroke-linecap:round;stroke-linejoin:round;" points="
				303.111,328.215 298.199,329.552 298.199,333.455 298.199,344.591 298.199,422.037 298.199,433.173 298.199,435.36 
				303.111,436.697 			"/>
			<polygon style="fill:none;stroke:#263238;stroke-width:0.75;stroke-linecap:round;stroke-linejoin:round;" points="
				293.853,344.591 293.853,333.455 293.853,329.552 288.942,328.215 288.942,436.697 293.853,435.36 293.853,433.173 
				293.853,422.037 			"/>
			<polygon style="fill:none;stroke:#263238;stroke-width:0.75;stroke-linecap:round;stroke-linejoin:round;" points="
				288.942,328.215 284.03,329.552 284.03,333.455 284.03,344.591 284.03,422.037 284.03,433.173 284.03,435.36 288.942,436.697 			
				"/>
			<polygon style="fill:none;stroke:#263238;stroke-width:0.75;stroke-linecap:round;stroke-linejoin:round;" points="
				279.685,344.591 279.685,333.455 279.685,329.552 274.773,328.215 274.773,436.697 279.685,435.36 279.685,433.173 
				279.685,422.037 			"/>
			<polygon style="fill:none;stroke:#263238;stroke-width:0.75;stroke-linecap:round;stroke-linejoin:round;" points="
				274.773,328.215 269.861,329.552 269.861,333.455 269.861,344.591 269.861,422.037 269.861,433.173 269.861,435.36 
				274.773,436.697 			"/>
			<polygon style="fill:none;stroke:#263238;stroke-width:0.75;stroke-linecap:round;stroke-linejoin:round;" points="
				265.516,344.591 265.516,333.455 265.516,329.552 260.604,328.215 260.604,436.697 265.516,435.36 265.516,433.173 
				265.516,422.037 			"/>
			<polygon style="fill:none;stroke:#263238;stroke-width:0.75;stroke-linecap:round;stroke-linejoin:round;" points="
				260.604,328.215 255.692,329.552 255.692,333.455 255.692,344.591 255.692,422.037 255.692,433.173 255.692,435.36 
				260.604,436.697 			"/>
			<polygon style="fill:none;stroke:#263238;stroke-width:0.75;stroke-linecap:round;stroke-linejoin:round;" points="
				251.347,344.591 251.347,333.455 251.347,329.552 246.435,328.215 246.435,435.9 248.663,436.029 248.652,436.094 
				251.347,435.36 251.347,433.173 251.347,422.037 			"/>
			<polygon style="fill:none;stroke:#263238;stroke-width:0.75;stroke-linecap:round;stroke-linejoin:round;" points="
				246.435,328.215 241.523,329.552 241.523,337.167 241.523,342.211 241.523,426.233 241.523,431.277 241.523,435.36 
				242.722,435.686 246.435,435.9 			"/>
			<polygon style="fill:none;stroke:#263238;stroke-width:0.75;stroke-linecap:round;stroke-linejoin:round;" points="
				359.786,435.887 357.33,436.029 357.33,436.029 359.786,451.145 363.56,451.145 363.56,435.669 363.56,435.669 			"/>
			<polygon style="fill:none;stroke:#263238;stroke-width:0.75;stroke-linecap:round;stroke-linejoin:round;" points="
				246.435,435.9 242.722,435.686 242.433,435.669 242.433,451.145 246.207,451.145 248.652,436.094 248.663,436.029 			"/>
		</g>
	</g>
</g>
<g id="Shadow">
	<path style="fill:#92E3A9;" d="M445.038,452.056H67.736c-10.424,2.277-19.216,5.352-15.736,8.906c7.5,7.659,193.5,8.906,194.5,0
		c1-8.906,51-8.266,47.75-2.554s13.67,5.712,21.71,5.212c8.04-0.5,10.461-5.693,19.091,0.5c6.503,4.667,63.165,4.667,85.012-2.73
		c18.978-6.425,34.1-2.424,32.283-6.2C451.297,453.012,448.607,453.34,445.038,452.056z"/>
</g>
<g id="Floor">
	<g id="freepik--Table--inject-4_2_">
		
			<line style="fill:none;stroke:#263238;stroke-linecap:round;stroke-linejoin:round;" x1="40" y1="452.056" x2="460" y2="452.056"/>
	</g>
</g>
<g id="Plant">
	<g>
		<g>
			<path style="fill:#92E3A9;" d="M409.947,382.049c0,0-19.119-12.406-10.572,15.427
				C399.375,397.476,422.053,388.976,409.947,382.049z"/>
			<path style="fill:#92E3A9;" d="M424.04,294.863c0,0-16.408-14.742-10.572,15.428C413.469,310.29,436.146,301.79,424.04,294.863z"
				/>
			<path style="fill:#92E3A9;" d="M430.804,364.89c0,0,20.253-13.142,11.199,16.342C442.003,381.233,417.981,372.228,430.804,364.89
				z"/>
			<path style="fill:#92E3A9;" d="M438.574,322.839c0,0,20.253-13.142,11.199,16.342
				C449.773,339.182,425.751,330.177,438.574,322.839z"/>
			<path style="fill:#92E3A9;" d="M448.496,270.245c0,0,13.529-16.5,11.199,16.342C459.695,286.588,435.672,277.583,448.496,270.245
				z"/>
			<path style="fill:#92E3A9;" d="M423.837,248.908c0,0-13.529-16.5-11.199,16.342C412.638,265.25,436.661,256.246,423.837,248.908z
				"/>
			<path style="fill:#92E3A9;" d="M441.871,246.277c0,0,5.106-16.09,13.019,8.727C454.89,255.004,434.598,255.427,441.871,246.277z"
				/>
			<path style="fill:#92E3A9;" d="M428.215,392.654c0,0,13.032-8.456,7.206,10.516C435.421,403.17,419.963,397.376,428.215,392.654z
				"/>
			<path style="fill:#92E3A9;" d="M414.676,338.502c0,0-16.956-11.003-9.375,13.682
				C405.301,352.184,425.412,344.645,414.676,338.502z"/>
			<path style="fill:none;stroke:#263238;stroke-linecap:round;stroke-linejoin:round;stroke-miterlimit:10;" d="M426.836,415.562
				c0,0-12.836-29.53-3.836-70.735s20.5-70.703,11.5-93.954"/>
			<path style="fill:none;stroke:#263238;stroke-linecap:round;stroke-linejoin:round;stroke-miterlimit:10;" d="M420.075,383.911
				c0,0-12.821-9.184-18.07,8.772"/>
			<path style="fill:none;stroke:#263238;stroke-linecap:round;stroke-linejoin:round;stroke-miterlimit:10;" d="M434.168,296.725
				c0,0-12.821-9.185-18.07,8.772"/>
			<path style="fill:none;stroke:#263238;stroke-linecap:round;stroke-linejoin:round;stroke-miterlimit:10;" d="M420.076,366.863
				c0,0,13.582-9.729,19.141,9.293"/>
			<path style="fill:none;stroke:#263238;stroke-linecap:round;stroke-linejoin:round;stroke-miterlimit:10;" d="M427.846,324.812
				c0,0,13.581-9.729,19.141,9.293"/>
			<path style="fill:none;stroke:#263238;stroke-linecap:round;stroke-linejoin:round;stroke-miterlimit:10;" d="M437.767,272.218
				c0,0,13.581-9.729,19.141,9.293"/>
			<path style="fill:none;stroke:#263238;stroke-linecap:round;stroke-linejoin:round;stroke-miterlimit:10;" d="M434.565,250.881
				c0,0-13.581-9.729-19.141,9.293"/>
			<path style="fill:none;stroke:#263238;stroke-linecap:round;stroke-linejoin:round;stroke-miterlimit:10;" d="M434.565,250.871
				c0,0,7.129-11.13,16.79,1.219"/>
			<path style="fill:#92E3A9;" d="M432.492,242.037c0,0-13.426-10.233,12.606-9.314C445.098,232.723,438.654,251.97,432.492,242.037
				z"/>
			<path style="fill:none;stroke:#263238;stroke-linecap:round;stroke-linejoin:round;stroke-miterlimit:10;" d="M434.353,250.464
				c0,0-8.074-10.465,6.809-15.395"/>
			<path style="fill:none;stroke:#263238;stroke-linecap:round;stroke-linejoin:round;stroke-miterlimit:10;" d="M421.311,393.924
				c0,0,8.739-6.26,12.317,5.98"/>
			<path style="fill:none;stroke:#263238;stroke-linecap:round;stroke-linejoin:round;stroke-miterlimit:10;" d="M423.658,340.154
				c0,0-11.37-8.145-16.025,7.78"/>
		</g>
		<g>
			<g>
				<defs>
					<polygon id="XMLID_206_" points="442.198,452.056 411.473,452.056 407.71,410.05 445.961,410.05 					"/>
				</defs>
				<use xlink:href="#XMLID_206_"  style="overflow:visible;fill:#FFFFFF;"/>
				<clipPath id="XMLID_00000047056759614718445780000013712648249678845599_">
					<use xlink:href="#XMLID_206_"  style="overflow:visible;"/>
				</clipPath>
				
					<rect x="400.304" y="403.692" style="clip-path:url(#XMLID_00000047056759614718445780000013712648249678845599_);fill:#92E3A9;" width="55.196" height="20.222"/>
				
					<use xlink:href="#XMLID_206_"  style="overflow:visible;fill:none;stroke:#263238;stroke-linecap:round;stroke-linejoin:round;stroke-miterlimit:10;"/>
			</g>
			<polygon style="fill:#FFFFFF;stroke:#263238;stroke-linecap:round;stroke-linejoin:round;stroke-miterlimit:10;" points="
				451.039,410.05 402.632,410.05 403.632,405.063 450.039,405.063 			"/>
		</g>
	</g>
</g>
<g id="Books_1_">
	<g>
		<g>
			<path style="fill:#FFFFFF;stroke:#263238;stroke-linecap:round;stroke-linejoin:round;stroke-miterlimit:10;" d="
				M382.833,389.411H365.74c-2.183,0-3.953,1.77-3.953,3.953v1.342c-1.045-0.938-2.302-1.486-3.656-1.486
				c-3.63,0-5.572,3.935-5.572,8.79c0,4.855,1.943,8.79,5.572,8.79c1.353,0,2.61-0.548,3.656-1.486v3.849
				c0,3.421,2.773,6.194,6.194,6.194h12.612c3.421,0,6.194-2.773,6.194-6.194v-19.8
				C386.787,391.181,385.017,389.411,382.833,389.411z M358.32,407.481c-2.259,0-3.467-2.449-3.467-5.47s1.209-5.47,3.467-5.47
				c1.464,0,2.744,1.032,3.467,2.578v5.784C361.064,406.449,359.784,407.481,358.32,407.481z"/>
			<g>
				<path style="fill:#92E3A9;" d="M368.835,405.213c-1.125-1.104-1.612-2.314-1.612-3.396c0-1.846,1.231-3.077,3.098-3.077
					c1.741,0,2.335,0.807,3.353,1.973c1.018-1.166,1.612-1.973,3.353-1.973c1.867,0,3.098,1.231,3.098,3.077
					c0,1.082-0.488,2.292-1.612,3.396l-4.839,4.816L368.835,405.213z"/>
			</g>
		</g>
		<g>
			<path style="fill:none;stroke:#263238;stroke-width:0.75;stroke-linecap:round;stroke-linejoin:round;stroke-miterlimit:10;" d="
				M372.024,376.672c1.219-3.318,0.055-6.421,0.055-6.421"/>
			<path style="fill:none;stroke:#263238;stroke-width:0.75;stroke-linecap:round;stroke-linejoin:round;stroke-miterlimit:10;" d="
				M371.105,386.037c0,0-2.599-3.657,0-7.556"/>
			<path style="fill:none;stroke:#263238;stroke-width:0.75;stroke-linecap:round;stroke-linejoin:round;stroke-miterlimit:10;" d="
				M377.244,376.625c3.713-5.57,1.392-11.757,1.392-11.757"/>
			<path style="fill:none;stroke:#263238;stroke-width:0.75;stroke-linecap:round;stroke-linejoin:round;stroke-miterlimit:10;" d="
				M377.244,387.42c0,0-2.706-3.807-1.188-8.387"/>
		</g>
	</g>
	<g id="Books">
		<g>
			<g>
				<g>
					<path style="fill:#92E3A9;stroke:#000000;stroke-linecap:round;stroke-linejoin:round;stroke-miterlimit:10;" d="
						M405.761,457.962h-61.406c-3.829,0-6.716-4.646-6.716-10.808c0-6.16,2.887-10.807,6.716-10.807h61.406
						c1.059,0,1.919,0.859,1.919,1.919c0,1.059-0.859,1.919-1.919,1.919h-61.406c-1.146,0-2.878,2.78-2.878,6.969
						c0,4.19,1.733,6.97,2.878,6.97h61.406c1.059,0,1.919,0.859,1.919,1.919C407.68,457.103,406.82,457.962,405.761,457.962z"/>
				</g>
				<path style="fill:#FFFFFF;stroke:#000000;stroke-linecap:round;stroke-linejoin:round;stroke-miterlimit:10;" d="
					M402.352,447.155c0-2.596,0.77-5.008,2.083-7.036h-60.294v14.072h60.294C403.122,452.163,402.352,449.75,402.352,447.155z"/>
				<g>
					
						<line style="fill:none;stroke:#000000;stroke-width:0.75;stroke-linecap:round;stroke-linejoin:round;stroke-miterlimit:10;" x1="376.418" y1="442.64" x2="367.382" y2="442.64"/>
					
						<line style="fill:none;stroke:#000000;stroke-width:0.75;stroke-linecap:round;stroke-linejoin:round;stroke-miterlimit:10;" x1="403.168" y1="442.64" x2="379.776" y2="442.64"/>
				</g>
				<g>
					
						<line style="fill:none;stroke:#000000;stroke-width:0.75;stroke-linecap:round;stroke-linejoin:round;stroke-miterlimit:10;" x1="357.787" y1="445.634" x2="355.788" y2="445.634"/>
					
						<line style="fill:none;stroke:#000000;stroke-width:0.75;stroke-linecap:round;stroke-linejoin:round;stroke-miterlimit:10;" x1="389.93" y1="445.634" x2="360.107" y2="445.634"/>
					
						<line style="fill:none;stroke:#000000;stroke-width:0.75;stroke-linecap:round;stroke-linejoin:round;stroke-miterlimit:10;" x1="402.443" y1="445.634" x2="392.968" y2="445.634"/>
				</g>
				<g>
					
						<line style="fill:none;stroke:#000000;stroke-width:0.75;stroke-linecap:round;stroke-linejoin:round;stroke-miterlimit:10;" x1="370.501" y1="451.622" x2="360.106" y2="451.622"/>
					
						<line style="fill:none;stroke:#000000;stroke-width:0.75;stroke-linecap:round;stroke-linejoin:round;stroke-miterlimit:10;" x1="400.804" y1="451.622" x2="374.288" y2="451.622"/>
				</g>
			</g>
			<g>
				<g>
					<g>
						<defs>
							<path id="XMLID_41_" d="M398.211,436.348h-48.508c-3.025,0-5.306-3.67-5.306-8.538c0-4.866,2.281-8.537,5.306-8.537h48.508
								c0.837,0,1.516,0.679,1.516,1.516c0,0.837-0.679,1.516-1.516,1.516h-48.508c-0.905,0-2.274,2.196-2.274,5.505
								c0,3.31,1.369,5.506,2.274,5.506h48.508c0.837,0,1.516,0.679,1.516,1.516C399.727,435.669,399.048,436.348,398.211,436.348z"
								/>
						</defs>
						<use xlink:href="#XMLID_41_"  style="overflow:visible;fill:#92E3A9;"/>
						<clipPath id="XMLID_00000107571055287808228610000008424596503138107289_">
							<use xlink:href="#XMLID_41_"  style="overflow:visible;"/>
						</clipPath>
						<g style="opacity:0.3;clip-path:url(#XMLID_00000107571055287808228610000008424596503138107289_);">
							<path d="M398.211,436.348h-48.508c-3.025,0-5.306-3.67-5.306-8.538c0-4.866,2.281-8.537,5.306-8.537h48.508
								c0.837,0,1.516,0.679,1.516,1.516c0,0.837-0.679,1.516-1.516,1.516h-48.508c-0.905,0-2.274,2.196-2.274,5.505
								c0,3.31,1.369,5.506,2.274,5.506h48.508c0.837,0,1.516,0.679,1.516,1.516C399.727,435.669,399.048,436.348,398.211,436.348z"
								/>
						</g>
						
							<use xlink:href="#XMLID_41_"  style="overflow:visible;fill:none;stroke:#000000;stroke-linecap:round;stroke-linejoin:round;stroke-miterlimit:10;"/>
					</g>
				</g>
				<path style="fill:#FFFFFF;stroke:#000000;stroke-linecap:round;stroke-linejoin:round;stroke-miterlimit:10;" d="
					M395.519,427.81c0-2.051,0.608-3.956,1.645-5.558h-47.63v11.116h47.629C396.127,431.766,395.519,429.861,395.519,427.81z"/>
				<g>
					
						<line style="fill:none;stroke:#000000;stroke-width:0.75;stroke-linecap:round;stroke-linejoin:round;stroke-miterlimit:10;" x1="375.032" y1="424.244" x2="367.893" y2="424.244"/>
					
						<line style="fill:none;stroke:#000000;stroke-width:0.75;stroke-linecap:round;stroke-linejoin:round;stroke-miterlimit:10;" x1="396.163" y1="424.244" x2="377.684" y2="424.244"/>
				</g>
				<g>
					
						<line style="fill:none;stroke:#000000;stroke-width:0.75;stroke-linecap:round;stroke-linejoin:round;stroke-miterlimit:10;" x1="360.314" y1="426.609" x2="358.735" y2="426.609"/>
					
						<line style="fill:none;stroke:#000000;stroke-width:0.75;stroke-linecap:round;stroke-linejoin:round;stroke-miterlimit:10;" x1="385.705" y1="426.609" x2="362.146" y2="426.609"/>
					
						<line style="fill:none;stroke:#000000;stroke-width:0.75;stroke-linecap:round;stroke-linejoin:round;stroke-miterlimit:10;" x1="395.59" y1="426.609" x2="388.105" y2="426.609"/>
				</g>
				<g>
					
						<line style="fill:none;stroke:#000000;stroke-width:0.75;stroke-linecap:round;stroke-linejoin:round;stroke-miterlimit:10;" x1="370.357" y1="431.339" x2="362.146" y2="431.339"/>
					
						<line style="fill:none;stroke:#000000;stroke-width:0.75;stroke-linecap:round;stroke-linejoin:round;stroke-miterlimit:10;" x1="394.295" y1="431.339" x2="373.349" y2="431.339"/>
				</g>
			</g>
		</g>
	</g>
</g>
<g id="Device">
	<g>
		<g>
			<g>
				<path style="fill:#263238;stroke:#263238;stroke-linecap:round;stroke-linejoin:round;" d="M363.67,309.265H238.707
					c-5.533,0-10.018-4.485-10.018-10.018V43.039c0-5.533,4.485-10.018,10.018-10.018H363.67c5.533,0,10.018,4.485,10.018,10.018
					v256.208C373.688,304.78,369.203,309.265,363.67,309.265z"/>
				<g>
					<defs>
						<path id="XMLID_40_" d="M328.057,45.062l-1.488,3.426c-1.066,2.454-3.487,4.042-6.163,4.042H281.97
							c-2.676,0-5.096-1.588-6.163-4.042l-1.488-3.426c-1.066-2.454-3.487-4.042-6.163-4.042h-26.579c-2.7,0-4.889,2.189-4.889,4.89
							v250.466c0,2.7,2.189,4.89,4.889,4.89h119.221c2.701,0,4.89-2.189,4.89-4.89V45.91c0-2.7-2.189-4.89-4.89-4.89H334.22
							C331.544,41.021,329.124,42.608,328.057,45.062z"/>
					</defs>
					<use xlink:href="#XMLID_40_"  style="overflow:visible;fill:#92E3A9;"/>
					<clipPath id="XMLID_00000090980105726190737670000012821785762175840641_">
						<use xlink:href="#XMLID_40_"  style="overflow:visible;"/>
					</clipPath>
					
						<path style="opacity:0.5;clip-path:url(#XMLID_00000090980105726190737670000012821785762175840641_);fill:#FFFFFF;stroke:#263238;stroke-linecap:round;stroke-linejoin:round;" d="
						M328.057,45.062l-1.488,3.426c-1.066,2.454-3.487,4.042-6.163,4.042H281.97c-2.676,0-5.096-1.588-6.163-4.042l-1.488-3.426
						c-1.066-2.454-3.487-4.042-6.163-4.042h-26.579c-2.7,0-4.889,2.189-4.889,4.89v250.466c0,2.7,2.189,4.89,4.889,4.89h119.221
						c2.701,0,4.89-2.189,4.89-4.89V45.91c0-2.7-2.189-4.89-4.89-4.89H334.22C331.544,41.021,329.124,42.608,328.057,45.062z"/>
					
						<use xlink:href="#XMLID_40_"  style="overflow:visible;fill:none;stroke:#263238;stroke-linecap:round;stroke-linejoin:round;"/>
				</g>
			</g>
			<g>
				<circle style="fill:#92E3A9;stroke:#263238;stroke-linecap:round;stroke-linejoin:round;" cx="285.001" cy="44.66" r="1.875"/>
				<path style="fill:#92E3A9;stroke:#263238;stroke-linecap:round;stroke-linejoin:round;" d="M317.376,42.785
					c-0.718,0-19.282,0-20,0c-1.035,0-1.875,0.839-1.875,1.875c0,1.035,0.84,1.875,1.875,1.875c0.718,0,19.282,0,20,0
					c1.035,0,1.875-0.84,1.875-1.875C319.251,43.624,318.411,42.785,317.376,42.785z"/>
			</g>
		</g>
		<g>
			<defs>
				<path id="XMLID_39_" d="M358.114,141.227H244.263c-1.422,0-2.574-1.153-2.574-2.575v-5.159c0-1.422,1.153-2.575,2.574-2.575
					h113.851c1.422,0,2.574,1.153,2.574,2.575v5.159C360.688,140.074,359.536,141.227,358.114,141.227z"/>
			</defs>
			<use xlink:href="#XMLID_39_"  style="overflow:visible;fill:#FFFFFF;"/>
			<clipPath id="XMLID_00000058579056061496395150000011225815263168320395_">
				<use xlink:href="#XMLID_39_"  style="overflow:visible;"/>
			</clipPath>
			<g style="clip-path:url(#XMLID_00000058579056061496395150000011225815263168320395_);">
				<rect x="238.598" y="125.243" style="fill:#92E3A9;" width="90.648" height="21.182"/>
				<rect x="238.598" y="125.243" style="opacity:0.2;" width="37.333" height="21.182"/>
				
					<rect x="275.931" y="125.243" transform="matrix(-1 -1.224647e-16 1.224647e-16 -1 575.4816 271.668)" style="opacity:0.5;fill:#FFFFFF;" width="23.62" height="21.182"/>
			</g>
			<use xlink:href="#XMLID_39_"  style="overflow:visible;fill:none;stroke:#263238;stroke-linecap:round;stroke-linejoin:round;"/>
		</g>
		<g>
			<g>
				<defs>
					<path id="XMLID_38_" d="M356.584,253.166H245.793c-2.267,0-4.105-1.838-4.105-4.105v-19.282c0-2.267,1.838-4.105,4.105-4.105
						h110.791c2.267,0,4.105,1.838,4.105,4.105v19.282C360.688,251.329,358.851,253.166,356.584,253.166z"/>
				</defs>
				<use xlink:href="#XMLID_38_"  style="overflow:visible;fill:#92E3A9;"/>
				<clipPath id="XMLID_00000065784855964623161760000006021064192423580045_">
					<use xlink:href="#XMLID_38_"  style="overflow:visible;"/>
				</clipPath>
				<path style="opacity:0.8;clip-path:url(#XMLID_00000065784855964623161760000006021064192423580045_);fill:#FFFFFF;" d="
					M356.584,253.166H245.793c-2.267,0-4.105-1.838-4.105-4.105v-19.282c0-2.267,1.838-4.105,4.105-4.105h110.791
					c2.267,0,4.105,1.838,4.105,4.105v19.282C360.688,251.329,358.851,253.166,356.584,253.166z"/>
				
					<use xlink:href="#XMLID_38_"  style="overflow:visible;fill:none;stroke:#263238;stroke-linecap:round;stroke-linejoin:round;"/>
			</g>
			<path style="fill:none;stroke:#263238;stroke-linecap:round;stroke-linejoin:round;" d="M262.238,249.334H248.63
				c-1.717,0-3.109-1.392-3.109-3.109v-13.608c0-1.717,1.392-3.109,3.109-3.109h13.608c1.717,0,3.109,1.392,3.109,3.109v13.608
				C265.348,247.942,263.956,249.334,262.238,249.334z"/>
			<path style="fill:#92E3A9;stroke:#263238;stroke-width:0.75;stroke-linecap:round;stroke-linejoin:round;" d="M256.861,246.01
				h-2.853c-2.852,0-5.163-2.312-5.163-5.163v-2.853c0-2.852,2.312-5.163,5.163-5.163h2.853c2.852,0,5.163,2.312,5.163,5.163v2.853
				C262.024,243.699,259.712,246.01,256.861,246.01z"/>
			<g>
				<defs>
					<path id="XMLID_37_" d="M347.348,242.715h-70.926c-1.422,0-2.574-1.153-2.574-2.574V238.7c0-1.422,1.153-2.575,2.574-2.575
						h70.926c1.422,0,2.574,1.153,2.574,2.575v1.441C349.922,241.563,348.77,242.715,347.348,242.715z"/>
				</defs>
				<clipPath id="XMLID_00000069367743492453825300000016061502400770207146_">
					<use xlink:href="#XMLID_37_"  style="overflow:visible;"/>
				</clipPath>
				
					<rect x="271.848" y="233.178" style="clip-path:url(#XMLID_00000069367743492453825300000016061502400770207146_);fill:#92E3A9;" width="49.5" height="12.832"/>
				
					<use xlink:href="#XMLID_37_"  style="overflow:visible;fill:none;stroke:#263238;stroke-linecap:round;stroke-linejoin:round;"/>
			</g>
			<path style="stroke:#000000;stroke-width:0.75;stroke-miterlimit:10;" d="M253.806,245.99c0.069,0.003,0.133,0.02,0.202,0.02
				h1.447v-3.416h2.13v-1.5h-2.13v-2.925h2.715v-1.5h-4.364V245.99z"/>
		</g>
		<g>
			<g>
				<defs>
					<path id="XMLID_36_" d="M356.584,182.997H245.793c-2.267,0-4.105-1.838-4.105-4.105V159.61c0-2.267,1.838-4.105,4.105-4.105
						h110.791c2.267,0,4.105,1.838,4.105,4.105v19.282C360.688,181.159,358.851,182.997,356.584,182.997z"/>
				</defs>
				<use xlink:href="#XMLID_36_"  style="overflow:visible;fill:#92E3A9;"/>
				<clipPath id="XMLID_00000116915685472562051950000014892603391983169167_">
					<use xlink:href="#XMLID_36_"  style="overflow:visible;"/>
				</clipPath>
				<path style="opacity:0.8;clip-path:url(#XMLID_00000116915685472562051950000014892603391983169167_);fill:#FFFFFF;" d="
					M356.584,182.997H245.793c-2.267,0-4.105-1.838-4.105-4.105V159.61c0-2.267,1.838-4.105,4.105-4.105h110.791
					c2.267,0,4.105,1.838,4.105,4.105v19.282C360.688,181.159,358.851,182.997,356.584,182.997z"/>
				
					<use xlink:href="#XMLID_36_"  style="overflow:visible;fill:none;stroke:#263238;stroke-linecap:round;stroke-linejoin:round;"/>
			</g>
			<path style="fill:none;stroke:#263238;stroke-linecap:round;stroke-linejoin:round;" d="M262.238,179.165H248.63
				c-1.717,0-3.109-1.392-3.109-3.109v-13.609c0-1.717,1.392-3.109,3.109-3.109h13.608c1.717,0,3.109,1.392,3.109,3.109v13.609
				C265.348,177.773,263.956,179.165,262.238,179.165z"/>
			<path style="fill:#92E3A9;stroke:#263238;stroke-width:0.75;stroke-linecap:round;stroke-linejoin:round;" d="M256.861,175.841
				h-2.853c-2.852,0-5.163-2.312-5.163-5.163v-2.853c0-2.852,2.312-5.163,5.163-5.163h2.853c2.852,0,5.163,2.312,5.163,5.163v2.853
				C262.024,173.529,259.712,175.841,256.861,175.841z"/>
			<g>
				<defs>
					<path id="XMLID_35_" d="M347.348,172.546h-70.926c-1.422,0-2.574-1.153-2.574-2.575v-1.441c0-1.422,1.153-2.574,2.574-2.574
						h70.926c1.422,0,2.574,1.153,2.574,2.574v1.441C349.922,171.393,348.77,172.546,347.348,172.546z"/>
				</defs>
				<clipPath id="XMLID_00000171688432019725232480000010191634309032853395_">
					<use xlink:href="#XMLID_35_"  style="overflow:visible;"/>
				</clipPath>
				
					<rect x="271.848" y="160.66" style="clip-path:url(#XMLID_00000171688432019725232480000010191634309032853395_);fill:#92E3A9;" width="18.25" height="17.25"/>
				
					<use xlink:href="#XMLID_35_"  style="overflow:visible;fill:none;stroke:#263238;stroke-linecap:round;stroke-linejoin:round;"/>
			</g>
			<path style="fill:#263238;stroke:#263238;stroke-linecap:round;stroke-linejoin:round;" d="M256.221,172.243
				c0,0.565-0.881,1.179-1.968,1.37c-1.087,0.192-1.968-0.111-1.968-0.676c0-0.565,0.881-1.179,1.968-1.37
				C255.34,171.375,256.221,171.678,256.221,172.243z"/>
			
				<line style="fill:none;stroke:#263238;stroke-linecap:round;stroke-linejoin:round;" x1="256.221" y1="172.243" x2="256.221" y2="165.798"/>
			<polygon style="fill:#263238;stroke:#263238;stroke-linecap:round;stroke-linejoin:round;" points="259.098,166.703 
				256.221,167.21 256.221,165.798 259.098,165.29 			"/>
		</g>
		<g>
			<g>
				<defs>
					<path id="XMLID_34_" d="M356.584,288.251H245.793c-2.267,0-4.105-1.838-4.105-4.105v-19.282c0-2.267,1.838-4.105,4.105-4.105
						h110.791c2.267,0,4.105,1.838,4.105,4.105v19.282C360.688,286.413,358.851,288.251,356.584,288.251z"/>
				</defs>
				<use xlink:href="#XMLID_34_"  style="overflow:visible;fill:#92E3A9;"/>
				<clipPath id="XMLID_00000124850777421043324310000007119697270231563660_">
					<use xlink:href="#XMLID_34_"  style="overflow:visible;"/>
				</clipPath>
				<path style="opacity:0.8;clip-path:url(#XMLID_00000124850777421043324310000007119697270231563660_);fill:#FFFFFF;" d="
					M356.584,288.251H245.793c-2.267,0-4.105-1.838-4.105-4.105v-19.282c0-2.267,1.838-4.105,4.105-4.105h110.791
					c2.267,0,4.105,1.838,4.105,4.105v19.282C360.688,286.413,358.851,288.251,356.584,288.251z"/>
				
					<use xlink:href="#XMLID_34_"  style="overflow:visible;fill:none;stroke:#263238;stroke-linecap:round;stroke-linejoin:round;"/>
			</g>
			<path style="fill:none;stroke:#263238;stroke-linecap:round;stroke-linejoin:round;" d="M262.238,284.419H248.63
				c-1.717,0-3.109-1.392-3.109-3.109v-13.608c0-1.717,1.392-3.109,3.109-3.109h13.608c1.717,0,3.109,1.392,3.109,3.109v13.608
				C265.348,283.027,263.956,284.419,262.238,284.419z"/>
			<path style="fill:#92E3A9;stroke:#263238;stroke-width:0.75;stroke-linecap:round;stroke-linejoin:round;" d="M256.861,281.095
				h-2.853c-2.852,0-5.163-2.312-5.163-5.163v-2.853c0-2.852,2.312-5.163,5.163-5.163h2.853c2.852,0,5.163,2.312,5.163,5.163v2.853
				C262.024,278.783,259.712,281.095,256.861,281.095z"/>
			<g>
				<defs>
					<path id="XMLID_33_" d="M347.348,277.8h-70.926c-1.422,0-2.574-1.153-2.574-2.574v-1.441c0-1.422,1.153-2.575,2.574-2.575
						h70.926c1.422,0,2.574,1.153,2.574,2.575v1.441C349.922,276.648,348.77,277.8,347.348,277.8z"/>
				</defs>
				<clipPath id="XMLID_00000101792856144381417500000005895728581146710145_">
					<use xlink:href="#XMLID_33_"  style="overflow:visible;"/>
				</clipPath>
				
					<rect x="269.848" y="267.915" style="clip-path:url(#XMLID_00000101792856144381417500000005895728581146710145_);fill:#92E3A9;" width="29.5" height="13.18"/>
				
					<use xlink:href="#XMLID_33_"  style="overflow:visible;fill:none;stroke:#263238;stroke-linecap:round;stroke-linejoin:round;"/>
			</g>
			<circle style="fill:none;stroke:#263238;stroke-linecap:round;stroke-linejoin:round;" cx="255.434" cy="274.505" r="2.499"/>
			
				<circle style="fill:#263238;stroke:#263238;stroke-width:0.75;stroke-linecap:round;stroke-linejoin:round;" cx="258.78" cy="271.159" r="0.923"/>
		</g>
		<g>
			<g>
				<defs>
					<path id="XMLID_31_" d="M356.584,218.082H245.793c-2.267,0-4.105-1.838-4.105-4.105v-19.282c0-2.267,1.838-4.105,4.105-4.105
						h110.791c2.267,0,4.105,1.838,4.105,4.105v19.282C360.688,216.244,358.851,218.082,356.584,218.082z"/>
				</defs>
				<use xlink:href="#XMLID_31_"  style="overflow:visible;fill:#92E3A9;"/>
				<clipPath id="XMLID_00000170971799076980844820000015159494603489413534_">
					<use xlink:href="#XMLID_31_"  style="overflow:visible;"/>
				</clipPath>
				<g style="opacity:0.8;clip-path:url(#XMLID_00000170971799076980844820000015159494603489413534_);">
					<defs>
						<path id="XMLID_32_" style="opacity:0.8;" d="M356.584,218.082H245.793c-2.267,0-4.105-1.838-4.105-4.105v-19.282
							c0-2.267,1.838-4.105,4.105-4.105h110.791c2.267,0,4.105,1.838,4.105,4.105v19.282
							C360.688,216.244,358.851,218.082,356.584,218.082z"/>
					</defs>
					<use xlink:href="#XMLID_32_"  style="overflow:visible;fill:#FFFFFF;"/>
					<clipPath id="XMLID_00000183959849068455717360000004285789142564086943_">
						<use xlink:href="#XMLID_32_"  style="overflow:visible;"/>
					</clipPath>
				</g>
				
					<use xlink:href="#XMLID_31_"  style="overflow:visible;fill:none;stroke:#263238;stroke-linecap:round;stroke-linejoin:round;"/>
			</g>
			<path style="fill:none;stroke:#263238;stroke-linecap:round;stroke-linejoin:round;" d="M262.238,214.249H248.63
				c-1.717,0-3.109-1.392-3.109-3.109v-13.609c0-1.717,1.392-3.109,3.109-3.109h13.608c1.717,0,3.109,1.392,3.109,3.109v13.609
				C265.348,212.857,263.956,214.249,262.238,214.249z"/>
			<path style="fill:#92E3A9;stroke:#263238;stroke-width:0.75;stroke-linecap:round;stroke-linejoin:round;" d="M256.861,210.926
				h-2.853c-2.852,0-5.163-2.312-5.163-5.163v-2.853c0-2.852,2.312-5.163,5.163-5.163h2.853c2.852,0,5.163,2.312,5.163,5.163v2.853
				C262.024,208.614,259.712,210.926,256.861,210.926z"/>
			<polygon style="fill:#263238;stroke:#263238;stroke-linecap:round;stroke-linejoin:round;" points="258.291,204.336 
				253.685,207.443 253.685,201.228 			"/>
			<g>
				<defs>
					<path id="XMLID_30_" d="M347.348,207.631h-70.926c-1.422,0-2.574-1.153-2.574-2.575v-1.441c0-1.422,1.153-2.575,2.574-2.575
						h70.926c1.422,0,2.574,1.153,2.574,2.575v1.441C349.922,206.478,348.77,207.631,347.348,207.631z"/>
				</defs>
				<clipPath id="XMLID_00000163045789013118340390000008872514303533086388_">
					<use xlink:href="#XMLID_30_"  style="overflow:visible;"/>
				</clipPath>
				
					<rect x="270.598" y="196.16" style="clip-path:url(#XMLID_00000163045789013118340390000008872514303533086388_);fill:#92E3A9;" width="35.5" height="17"/>
				
					<use xlink:href="#XMLID_30_"  style="overflow:visible;fill:none;stroke:#263238;stroke-linecap:round;stroke-linejoin:round;"/>
			</g>
		</g>
		<g>
			<defs>
				<path id="XMLID_29_" d="M353.991,62.91H248.386c-3.699,0-6.698,2.999-6.698,6.698v45.347c0,3.699,2.999,6.698,6.698,6.698
					h105.605c3.699,0,6.698-2.999,6.698-6.698V69.607C360.688,65.909,357.69,62.91,353.991,62.91z"/>
			</defs>
			<use xlink:href="#XMLID_29_"  style="overflow:visible;fill:#92E3A9;"/>
			<clipPath id="XMLID_00000173140821239087363070000010518642131969659578_">
				<use xlink:href="#XMLID_29_"  style="overflow:visible;"/>
			</clipPath>
			
				<polyline style="clip-path:url(#XMLID_00000173140821239087363070000010518642131969659578_);fill:none;stroke:#FFFFFF;stroke-width:5;stroke-linecap:round;stroke-linejoin:round;" points="
				239.36,116.752 256.326,97.793 273.292,108.475 290.257,80.747 307.223,96.32 324.188,78.249 341.154,78.249 358.12,60.91 			"/>
			
				<use xlink:href="#XMLID_29_"  style="overflow:visible;fill:none;stroke:#263238;stroke-width:0.75;stroke-linecap:round;stroke-linejoin:round;"/>
		</g>
	</g>
</g>
<g id="Beanbag">
	<g>
		<g>
			<defs>
				<path id="XMLID_1_" d="M232.205,410.754H81.419l11.345-77.414c4.828-26.986,28.301-46.632,55.715-46.632h16.666
					c27.414,0,50.888,19.647,55.715,46.632L232.205,410.754z"/>
			</defs>
			<use xlink:href="#XMLID_1_"  style="overflow:visible;fill:#FFFFFF;"/>
			<clipPath id="XMLID_00000162319504161995944320000011057594321559247257_">
				<use xlink:href="#XMLID_1_"  style="overflow:visible;"/>
			</clipPath>
			<path style="opacity:0.1;clip-path:url(#XMLID_00000162319504161995944320000011057594321559247257_);" d="M217.171,407.215
				H96.452l9.083-61.978c3.865-21.605,22.658-37.334,44.605-37.334h13.343c21.948,0,40.74,15.729,44.605,37.334L217.171,407.215z"/>
			<use xlink:href="#XMLID_1_"  style="overflow:visible;fill:none;stroke:#263238;stroke-linecap:round;stroke-linejoin:round;"/>
		</g>
		<g>
			<g>
				<defs>
					<path id="XMLID_131_" d="M269.22,399.339c28.654,62.95-64.981,58.565-107.539,58.767c-46.07,0.219-136.267,7.111-115.09-58.95
						c7.002-21.844,20.059-25.665,40.01-18.167c24.627,9.255,47.644,22.035,74.819,21.42c26.284-0.594,44.853-13.844,67.786-24.244
						C249.54,368.944,260.528,380.243,269.22,399.339z"/>
				</defs>
				<use xlink:href="#XMLID_131_"  style="overflow:visible;fill:#FFFFFF;"/>
				<clipPath id="XMLID_00000085962173991066096310000009156947497653771404_">
					<use xlink:href="#XMLID_131_"  style="overflow:visible;"/>
				</clipPath>
				<path style="opacity:0.1;clip-path:url(#XMLID_00000085962173991066096310000009156947497653771404_);" d="M251.522,390.003
					c13.963,52.838-53.878,52.994-91.787,53.263c-36.595,0.259-106.017-0.045-92.283-52.553c3.46-13.228,20.665-3.184,27.973-0.188
					c21.402,8.773,41.947,16.326,64.113,16.241c22.109-0.085,42.581-7.763,63.998-16.733
					C230.492,387.119,248.073,376.954,251.522,390.003z"/>
				
					<use xlink:href="#XMLID_131_"  style="overflow:visible;fill:none;stroke:#263238;stroke-linecap:round;stroke-linejoin:round;"/>
			</g>
		</g>
	</g>
</g>
<g id="Character">
	<g>
		<g>
			<defs>
				<path id="XMLID_13_" d="M77.559,355.843c0,0,10.457-3.058,27.54,7.4c18.486,11.317,19.46-8.083,25.573-17.083h58.913
					c0,0,7.6,21.6,12.8,19.8c5.2-1.8,29.467-7.645,36.533,7.478c7.067,15.122-13.333,26.322-13.333,26.322s-18.6,15-23,14.8
					c-4.4-0.2-57.6-0.938-57.6-0.938l-62-39.062l-6.8-11.317L77.559,355.843z"/>
			</defs>
			<use xlink:href="#XMLID_13_"  style="overflow:visible;fill:#858585;"/>
			<clipPath id="XMLID_00000020370100399719422020000015927676025625596348_">
				<use xlink:href="#XMLID_13_"  style="overflow:visible;"/>
			</clipPath>
			<path style="opacity:0.3;clip-path:url(#XMLID_00000020370100399719422020000015927676025625596348_);" d="M242.177,369.099
				l-27.857,29.6l-38.896-8.25l2.753-1.677c0,0,20.222-16.053,14.875-19.273c-4.208-2.533-19.408,10.667-37.053,10.861
				c-17.645,0.195-31.155-13.795-33.414-11.128c-0.615,0.726-0.177,2.479,0.786,4.647c0.362,0.816-0.509,1.622-1.288,1.187
				c-10.445-5.834-23.626-11.824-23.626-11.824l-5.346,4.39l13.275,18.764l22.434,5.693l-1.834,1.943l25.352,9.491l7.689,17.861
				l47.958,0.007l24.992-13.041l16.8-27.989L242.177,369.099z"/>
			
				<use xlink:href="#XMLID_13_"  style="overflow:visible;fill:none;stroke:#263238;stroke-linecap:round;stroke-linejoin:round;stroke-miterlimit:10;"/>
		</g>
		<g>
			<defs>
				<polygon id="XMLID_12_" points="151.396,240.744 151.396,273.066 175.768,273.066 175.768,248.014 				"/>
			</defs>
			<use xlink:href="#XMLID_12_"  style="overflow:visible;fill:#FFFFFF;"/>
			<clipPath id="XMLID_00000104684284773886129720000007405897568520351146_">
				<use xlink:href="#XMLID_12_"  style="overflow:visible;"/>
			</clipPath>
			
				<path style="clip-path:url(#XMLID_00000104684284773886129720000007405897568520351146_);fill:#263238;stroke:#263238;stroke-linecap:round;stroke-linejoin:round;" d="
				M150.902,243.048c0.914,1.991,2.415,4.536,4.874,7.199c4.443,4.812,20.284,4.269,25.824,3.92
				c1.152-0.073,2.113-0.896,2.363-2.024c0.454-2.055,1.166-5.533,1.644-9.095H150.902z"/>
			<use xlink:href="#XMLID_12_"  style="overflow:visible;fill:none;stroke:#263238;stroke-linecap:round;stroke-linejoin:round;"/>
		</g>
		<path style="fill:#263238;stroke:#263238;stroke-linecap:round;stroke-linejoin:round;" d="M156.195,202.443
			c0,0-19.152-6.117-19.95,20.981c-0.798,27.098-18.753,29.891-2.793,44.654c15.96,14.763,21.372-7.786,21.372-7.786
			s-6.63-3.186-3.427-9.969c3.203-6.783,26.656,2.893,26.656,2.893s5.673,7.88,0.686,13.865c0,0,16.783,3.224,14.177-7.765
			c-2.606-10.988-6.817-25.282-6.806-39.282C186.12,206.034,173.551,190.872,156.195,202.443z"/>
		<g>
			<defs>
				<path id="XMLID_11_" d="M119.319,269.16c0,0,10.308,40.245,7.564,73.432c-0.203,2.456,1.146,4.783,3.407,5.763
					c4.762,2.062,14.33,4.552,30.362,2.139c0,0,31.1,4.846,32.533-3.2c3.467-19.467-1.867-52.8,10.933-76.8
					c0,0-14.4-9.867-40-10.133C138.519,260.093,119.319,269.16,119.319,269.16z"/>
			</defs>
			<use xlink:href="#XMLID_11_"  style="overflow:visible;fill:#92E3A9;"/>
			<clipPath id="XMLID_00000087409795397879832390000015403943148382490004_">
				<use xlink:href="#XMLID_11_"  style="overflow:visible;"/>
			</clipPath>
			<path style="opacity:0.2;clip-path:url(#XMLID_00000087409795397879832390000015403943148382490004_);" d="M135.622,350.11
				c0,0-4.445-2.156-2.645-6.284c1.8-4.127,7.867-16.727,7.867-16.727s6.345,2,10.939,0.6c4.594-1.4,8.244-3.6,8.244-3.6
				s6.748,3.8,18.449,0c0,0,3.241,18.025,11.071,26.512c7.83,8.488,8.117-1.912,8.117-1.912l-11.555-27.596l-5.332-8.204
				l-15.671,5.2l-20.929-5.2l-10.6,5.994l-8.6,15.467l-4,7.74v6.8l9.695,5.046L135.622,350.11z"/>
			<path style="opacity:0.2;clip-path:url(#XMLID_00000087409795397879832390000015403943148382490004_);" d="M142.711,261.099
				c0,0,7.6,9.854,23.333,9.394c15.733-0.46,15.333-7.527,15.333-7.527l-0.768-3.591h-9.408l-25.158-2.47L142.711,261.099z"/>
			<g style="clip-path:url(#XMLID_00000087409795397879832390000015403943148382490004_);">
				<path style="fill:#92E3A9;stroke:#263238;stroke-width:0.75;stroke-linecap:round;stroke-linejoin:round;" d="M176.518,344.568
					c0.395-0.235,0.779-0.482,1.149-0.742"/>
				<path style="fill:#92E3A9;stroke:#263238;stroke-width:0.75;stroke-linecap:round;stroke-linejoin:round;" d="M163.381,348.731
					c0,0,6.265-0.736,11.526-3.297"/>
			</g>
			<use xlink:href="#XMLID_11_"  style="overflow:visible;fill:none;stroke:#263238;stroke-linecap:round;stroke-linejoin:round;"/>
		</g>
		<path style="fill:#FFFFFF;stroke:#263238;stroke-linecap:round;stroke-linejoin:round;" d="M163.38,388.772l-33,19.8
			c0,0-5.533-2.2-10.566-1.2s-20.834-4.6-27.434-1.2s-8.4,22.2-2.2,24.6c6.2,2.4,37-3.6,43.8-5.8c6.8-2.2,41-16,41-16
			L163.38,388.772z"/>
		<path style="fill:#263238;stroke:#263238;stroke-linecap:round;stroke-linejoin:round;" d="M127.68,424.972
			c1.927-0.16,3.075,0.28,3.731,0.725c-9.898,2.546-35.624,7.246-41.231,5.075c-6.2-2.4-4.4-21.2,2.2-24.6s22.4,2.2,27.434,1.2
			s10.566,1.2,10.566,1.2c-0.4,2.1-5.5,0.3-5,1.9s5.7-0.4,6.8,6.6C133.28,424.072,124.08,425.272,127.68,424.972z"/>
		<path style="fill:#FFFFFF;stroke:#263238;stroke-linecap:round;stroke-linejoin:round;" d="M96.265,405.162
			c-2.474,3.712-8.778,14.914-3.574,26.082c-1.041-0.085-1.901-0.236-2.511-0.472c-6.2-2.4-4.4-21.2,2.2-24.6
			C93.457,405.617,94.783,405.305,96.265,405.162z"/>
		<path style="fill:#FFFFFF;stroke:#263238;stroke-linecap:round;stroke-linejoin:round;" d="M179.702,214.797l1.458,6.759
			c0,0,4.515,5.299,4.912,12.079c0.301,5.127-1.308,13.197-2.11,16.827c-0.249,1.128-1.21,1.951-2.363,2.024
			c-5.539,0.35-21.38,0.892-25.824-3.92c-5.415-5.863-6.219-11.183-6.219-11.183s5.617-11.821,3.899-17.145
			c0,0,7.578-5.915,6.84-9.547C160.296,210.692,175.936,204.541,179.702,214.797z"/>
		<path style="fill:none;stroke:#263238;stroke-linecap:round;stroke-linejoin:round;" d="M174.65,220.928
			c0,0,1.297,5.879,5.261,7.795c0.725,0.351,0.903,1.311,0.402,1.943l-2.355,2.97"/>
		<path style="fill:none;stroke:#263238;stroke-linecap:round;stroke-linejoin:round;" d="M168.497,239.597
			c0,0,3.465,1.488,7.484,0.259c4.019-1.229,3.243-3.361,3.243-3.361"/>
		<path style="fill:none;stroke:#263238;stroke-width:1.5;stroke-linecap:round;stroke-linejoin:round;" d="M159.721,223.424
			c0,0,2.348-6.38,9.045-3.268"/>
		<path style="fill:none;stroke:#263238;stroke-width:1.5;stroke-linecap:round;stroke-linejoin:round;" d="M175.768,218.114
			c0,0,1.768-3.386,4.152-2.306"/>
		<g>
			<path style="fill:#263238;stroke:#263238;stroke-linecap:round;stroke-linejoin:round;" d="M168.094,299.075v-6.685
				c0-1.756-1.423-3.179-3.179-3.179h-10.507c-1.756,0-3.179,1.423-3.179,3.179v6.685H168.094z"/>
			<path style="fill:#858585;stroke:#263238;stroke-linecap:round;stroke-linejoin:round;stroke-miterlimit:10;" d="
				M164.764,321.103h-10.204c-1.839,0-3.33-1.491-3.33-3.33V294.45c0-1.839,1.491-3.33,3.33-3.33h10.204
				c1.839,0,3.33,1.491,3.33,3.33v23.323C168.094,319.612,166.603,321.103,164.764,321.103z"/>
			<circle style="fill:#92E3A9;stroke:#263238;stroke-linecap:round;stroke-linejoin:round;" cx="155.366" cy="295.387" r="2.024"/>
			<circle style="fill:#263238;" cx="155.366" cy="295.387" r="0.633"/>
		</g>
		<path style="fill:#263238;" d="M167.971,224.511c0.249,0.844-0.016,1.666-0.593,1.837c-0.577,0.171-1.247-0.375-1.496-1.219
			c-0.249-0.844,0.016-1.666,0.593-1.837C167.052,223.122,167.721,223.667,167.971,224.511z"/>
		<path style="fill:#263238;" d="M180.329,221.43c0.249,0.844-0.016,1.666-0.593,1.837c-0.577,0.171-1.247-0.375-1.496-1.219
			c-0.249-0.844,0.016-1.666,0.593-1.837C179.41,220.04,180.08,220.586,180.329,221.43z"/>
		<path style="fill:#92E3A9;stroke:#263238;stroke-linecap:round;stroke-linejoin:round;" d="M148.285,263.16l1.7-4.7v-5.713
			c0,0,12.286,2.144,25.664,0.798c1.201-0.121,2.169,0.968,1.907,2.147c0,0-0.382,1.241-0.371,1.667
			c0.029,1.152,1.226,4.445,1.226,4.445c0.229,0.831-0.167,1.715-0.95,2.076C174.271,265.351,165.149,268.156,148.285,263.16z"/>
		<g>
			<g>
				<defs>
					<path id="XMLID_10_" d="M170.69,228.035l-4.788,1.302c-1.051,0.286-2.119-0.151-2.482-1.014l-1.493-3.552
						c-0.307-0.731-0.03-1.59,0.69-2.132l0,0c0.302-0.228,0.663-0.384,1.044-0.451l5.84-1.041c1.172-0.209,2.239,0.45,2.375,1.466
						l0.441,3.291C172.441,226.832,171.741,227.749,170.69,228.035z"/>
				</defs>
				<clipPath id="XMLID_00000120530781367193498050000008593763833517679243_">
					<use xlink:href="#XMLID_10_"  style="overflow:visible;"/>
				</clipPath>
				
					<use xlink:href="#XMLID_10_"  style="overflow:visible;fill:none;stroke:#263238;stroke-linecap:round;stroke-linejoin:round;"/>
			</g>
			<g>
				<defs>
					<path id="XMLID_9_" d="M179.975,225.51l4.788-1.302c1.051-0.286,1.751-1.203,1.626-2.131l-0.511-3.819
						c-0.105-0.786-0.78-1.386-1.674-1.489l0,0c-0.376-0.043-0.766,0.005-1.129,0.139l-5.563,2.06
						c-1.116,0.413-1.702,1.522-1.305,2.467l1.286,3.061C177.856,225.359,178.924,225.796,179.975,225.51z"/>
				</defs>
				<clipPath id="XMLID_00000151517519039839309000000003105505733467641022_">
					<use xlink:href="#XMLID_9_"  style="overflow:visible;"/>
				</clipPath>
				<use xlink:href="#XMLID_9_"  style="overflow:visible;fill:none;stroke:#263238;stroke-linecap:round;stroke-linejoin:round;"/>
			</g>
			<path style="fill:none;stroke:#263238;stroke-linecap:round;stroke-linejoin:round;" d="M172.199,222.431
				c-0.234-0.862,0.39-1.782,1.394-2.055c1.004-0.273,2.008,0.204,2.242,1.066"/>
			
				<line style="fill:#FFFFFF;stroke:#263238;stroke-linecap:round;stroke-linejoin:round;" x1="161.927" y1="224.771" x2="149.557" y2="231.604"/>
		</g>
		<g>
			<path style="fill:#FFFFFF;stroke:#263238;stroke-linecap:round;stroke-linejoin:round;" d="M132.517,312.675
				c2.669-4.316,13.7-11.443,18.267-5.467c0,0,3.386,0.733,4.533,0.721c2.541-0.026,8.375-1.654,9.333,0.8
				c0.503,1.289-1.942,1.794-4.5,2.479c-2.558,0.685-4.7,0.667-6.3,0.667c-3.2,0-5.264-0.4-5.264-0.4l5.53,2.133
				c0,0,5.402-1.277,7.2-1.467c2.022-0.214,7.867-0.933,8,1.467c0.063,1.125-1.448,0.931-3.267,1.467
				c-2.061,0.607-4.467,1.067-4.467,1.067s-5.067,2-7.467,1.8c-2.4-0.2-4-0.867-4-0.867l-2.667-0.933c0,0,2.333,2.133,6.667,2.4
				c4.333,0.267,5.733-1.933,9.133-2.267c3.4-0.333,4.884,0.333,4.933,1.5c0.067,1.566-3.133,1.633-5.667,2.167
				c-2.533,0.533-3.6,1.933-5.733,2.067c0,0-4,2.133-7.267,2.267c-3.267,0.133-10.933-1.533-11.6-0.667
				c-0.376,0.489-3.491,7.922-8.097,16.055c-3.552,6.272-9.168,13.679-18.109,13.679c0,0-5.994-3.2-6.594-17.8
				c-0.15-3.65,0.688-7.025,0.828-10.034c0.422-9.028,0.972-14.766,0.972-14.766l20.4-0.1l-2.2,11.4
				C125.117,322.042,129.628,317.347,132.517,312.675z"/>
			<path style="fill:#FFFFFF;stroke:#263238;stroke-linecap:round;stroke-linejoin:round;" d="M156.783,322.009
				c0,0-3.867,1.333-9.2-0.933"/>
			
				<line style="fill:#FFFFFF;stroke:#263238;stroke-linecap:round;stroke-linejoin:round;" x1="150.783" y1="307.209" x2="145.417" y2="307.209"/>
		</g>
		<g>
			<path style="fill:none;stroke:#263238;stroke-linecap:round;stroke-linejoin:round;" d="M112.259,335.691
				c-0.241,0.519-0.466,1.074-0.674,1.669"/>
			<path style="fill:none;stroke:#263238;stroke-linecap:round;stroke-linejoin:round;" d="M122.585,324.76
				c-2.465,3.271-6.418,4.655-9.209,8.915"/>
		</g>
		<path style="fill:#92E3A9;stroke:#263238;stroke-linecap:round;stroke-linejoin:round;" d="M123.295,280.37
			c-1.108-3.942-2.421-7.77-3.976-11.211c0,0-12.09,11.965-12.892,39.511c-0.054,1.863,1.09,3.551,2.837,4.198
			c2.981,1.105,8.385,2.551,16.713,2.84c1.617,0.056,2.929-1.292,2.797-2.905c-0.162-1.984-0.431-4.857-0.851-8.277"/>
		<path style="fill:#263238;stroke:#263238;stroke-linecap:round;stroke-linejoin:round;" d="M150.865,251.699h-22.85
			c-2.07,5.29-1.939,9.557,5.436,16.379c15.96,14.763,21.372-7.786,21.372-7.786S149.098,257.537,150.865,251.699z"/>
		<path style="fill:#263238;stroke:#263238;stroke-linecap:round;stroke-linejoin:round;" d="M191.293,252.704h-14.54
			c0.816,0.313,1.299,0.512,1.299,0.512s5.673,7.88,0.686,13.865c0,0,16.783,3.224,14.177-7.765
			C192.42,257.228,191.865,255.008,191.293,252.704z"/>
		<g>
			<path style="fill:#FFFFFF;stroke:#263238;stroke-linecap:round;stroke-linejoin:round;" d="M187.585,309.493
				c-3.398-3.343-11.467-8.533-19.067-5.467l-3.733,0.721c0,0-9.175-2.454-10.133,0c-0.504,1.289,1.942,1.794,4.5,2.479
				c2.558,0.685,4.7,1.467,6.3,1.467c3.2,0,5.264-0.4,5.264-0.4l-5.53,2.133c0,0-5.402-0.477-7.2-0.667
				c-2.022-0.214-7.867-0.933-8,1.467c-0.063,1.125,1.448,0.931,3.267,1.467c2.062,0.607,4.467,1.067,4.467,1.067s5.067,1.2,7.467,1
				c2.4-0.2,4-0.867,4-0.867l1.867-0.133c0,0-1.533,1.333-5.867,1.6c-4.333,0.267-5.733-1.133-9.133-1.467
				c-3.4-0.333-4.884,0.333-4.933,1.5c-0.067,1.566,3.133,1.633,5.667,2.166c2.533,0.533,3.6,1.133,5.733,1.267
				c0,0,4,2.133,7.267,2.267c3.267,0.133,10.133-1.533,10.8-0.667c0.667,0.867,9.012,34.133,23.806,36.133c0,0,9.194-4,9.794-18.6
				c0.6-14.6-1-23.2-1-23.2l-18.8-1.7l0.6,8.2C194.985,321.26,191.5,313.346,187.585,309.493z"/>
			<path style="fill:none;stroke:#263238;stroke-width:0.75;stroke-linecap:round;stroke-linejoin:round;" d="M198.217,327.022
				c0.752,1.074,1.694,2.3,2.781,3.471c3.053,3.29,6.351,7.139,6.988,12.333"/>
			<path style="fill:none;stroke:#263238;stroke-width:0.75;stroke-linecap:round;stroke-linejoin:round;" d="M196.252,323.893
				c0,0,0.299,0.56,0.842,1.431"/>
			<path style="fill:none;stroke:#263238;stroke-linecap:round;stroke-linejoin:round;" d="M162.519,318.826
				c0,0,3.067,1.333,8.4-0.933"/>
			
				<line style="fill:none;stroke:#263238;stroke-linecap:round;stroke-linejoin:round;" x1="168.519" y1="304.026" x2="173.885" y2="304.026"/>
		</g>
		<path style="fill:#858585;stroke:#263238;stroke-linecap:round;stroke-linejoin:round;stroke-miterlimit:10;" d="M237.847,371.305
			c-3.47-6.002-14.4-12.953-30.933-3.2c-19.262,11.363-50.93,22.133-51.731,25.067c0,0,11.198,8.533,13.598,19.467
			c0,0,5.8,2.933,16.9-1.333C196.78,407.039,251.985,395.76,237.847,371.305z"/>
		<path style="fill:#FFFFFF;stroke:#263238;stroke-linecap:round;stroke-linejoin:round;" d="M138.585,391.96l33,19.8
			c0,0,5.533-2.2,10.566-1.2c5.034,1,20.834-4.6,27.434-1.2c6.6,3.4,8.4,22.2,2.2,24.6s-37-3.6-43.8-5.8c-6.8-2.2-41-16-41-16
			L138.585,391.96z"/>
		<path style="fill:#263238;stroke:#263238;stroke-linecap:round;stroke-linejoin:round;" d="M174.285,428.16
			c-1.927-0.16-3.075,0.28-3.731,0.725c9.899,2.546,35.624,7.246,41.231,5.075c6.2-2.4,4.4-21.2-2.2-24.6
			c-6.6-3.4-22.4,2.2-27.434,1.2c-5.034-1-10.566,1.2-10.566,1.2c0.4,2.1,5.5,0.3,5,1.9s-5.7-0.4-6.8,6.6
			C168.685,427.26,177.885,428.46,174.285,428.16z"/>
		<path style="fill:#FFFFFF;stroke:#263238;stroke-linecap:round;stroke-linejoin:round;" d="M205.701,408.349
			c2.474,3.712,8.778,14.914,3.574,26.082c1.04-0.085,1.901-0.236,2.511-0.472c6.2-2.4,4.4-21.2-2.2-24.6
			C208.508,408.805,207.182,408.492,205.701,408.349z"/>
		<g>
			<defs>
				<path id="XMLID_8_" d="M68.119,361.693c3.841-5.772,11.2-9.753,27.733,0c19.262,11.363,50.13,31.733,50.932,34.667
					c0,0-11.198,8.533-13.598,19.467c0,0-5.8,0.533-16.9-3.733C105.185,407.826,51.297,386.975,68.119,361.693z"/>
			</defs>
			<use xlink:href="#XMLID_8_"  style="overflow:visible;fill:#858585;"/>
			<clipPath id="XMLID_00000167385241229766793780000004280041695162135224_">
				<use xlink:href="#XMLID_8_"  style="overflow:visible;"/>
			</clipPath>
			<path style="opacity:0.3;clip-path:url(#XMLID_00000167385241229766793780000004280041695162135224_);" d="M68.119,361.693
				c0,0-5.141,14.352,14.859,27.079c20,12.727,44.657,28.395,54.231,17.991c9.575-10.404,6.444,14.627,6.444,14.627l-26.567,5.309
				l-52.193-24.8l-17.515-19.6l4.8-24.74l10.4-5.62L68.119,361.693z"/>
			
				<use xlink:href="#XMLID_8_"  style="overflow:visible;fill:none;stroke:#263238;stroke-linecap:round;stroke-linejoin:round;stroke-miterlimit:10;"/>
		</g>
		<path style="fill:#92E3A9;stroke:#263238;stroke-linecap:round;stroke-linejoin:round;" d="M194.607,296.02
			c1.103-5.611,2.911-11.861,5.819-18.314c1.074-2.384,2.299-4.795,3.693-7.213c0,0,8.067,5.067,10.067,15.267
			c1.752,8.935,0.281,23.702,1.099,30.319c0.18,1.459-0.73,2.828-2.15,3.211c-2.986,0.806-8.501,1.683-16.586,0.582
			c-1.889-0.257-3.34-1.808-3.446-3.712c-0.102-1.818-0.162-4.344-0.026-7.41"/>
	</g>
</g>
</svg>
